<?xml version="1.0" encoding="UTF-8" standalone="no"?>
<svg width="48px" height="48px" viewBox="0 0 48 48" version="1.1" xmlns="http://www.w3.org/2000/svg" xmlns:xlink="http://www.w3.org/1999/xlink">
    <!-- Generator: Sketch 3.8.2 (29753) - http://www.bohemiancoding.com/sketch -->
    <title>Icons/social/vk-icon(normal)</title>
    <desc>Created with Sketch.</desc>
    <defs>
        <rect id="path-1" x="0" y="0" width="48" height="48" rx="2"></rect>
        <mask id="mask-2" maskContentUnits="userSpaceOnUse" maskUnits="objectBoundingBox" x="0" y="0" width="48" height="48" fill="white">
            <use xlink:href="#path-1"></use>
        </mask>
    </defs>
    <g id="Регистрация/Авторизация" stroke="none" stroke-width="1" fill="none" fill-rule="evenodd">
        <g id="iPh-6_Регистрация-–-Гражданин-(шаг-1)" transform="translate(-196.000000, -600.000000)">
            <g id="Форма" transform="translate(31.000000, 152.000000)">
                <g id="Social-icons" transform="translate(37.000000, 448.000000)">
                    <g id="Icons/Social/vk-icon(normal)" transform="translate(128.000000, 0.000000)">
                        <g id="Icons/social/vk-icon(normal)">
                            <path d="M24.3554192,33.0067615 C25.0654769,33.0067615 25.356962,32.5325969 25.3475834,31.9392965 C25.3113601,29.7025606 26.1807865,28.4991734 27.7496686,30.0682593 C29.4864146,31.8048694 29.8454531,33.0067615 31.9531308,33.0067615 L35.68671,33.0067615 C38.623853,33.0067615 36.006467,30.0592205 33.9372552,28.1387756 C31.9699172,26.3126608 31.8775581,26.2695734 33.5716925,24.0715075 C35.6751566,21.3435488 38.4236395,17.8287364 35.9916514,17.8287364 L31.3467139,17.8287364 C30.4454817,17.8287364 30.3805109,18.355299 30.0603461,19.1111624 C28.9002501,21.8485677 26.693689,25.3955936 25.8553888,24.8539436 C24.9786905,24.2873519 25.3801368,22.3657517 25.4473503,19.0353178 C25.4650881,18.1557652 25.4606027,17.5515231 24.1162641,17.2395136 C20.4457529,16.3876212 17.2651053,18.0633381 18.5643856,18.3052797 C20.3968209,18.6469881 20.2210735,22.2942566 19.7936661,24.0065366 C19.049424,26.9879903 16.2519411,21.6447524 15.0857286,18.9844829 C14.8051852,18.3443573 14.7194182,17.8287364 13.7152929,17.8287364 L9.9175585,17.8287364 C9.18541353,17.8287364 8.82644298,18.1640565 9.08204469,18.8440073 C9.3376464,19.5239582 12.2761486,26.097292 15.7503202,29.8475216 C18.9657639,33.3184311 22.1439649,33.0067615 24.3554192,33.0067615 L24.3554192,33.0067615 Z" id="vk-icon-copy-2" fill="#2E4E5E"></path>
                            <use id="Icons/social/vk-icon" stroke="#2E4E5E" mask="url(#mask-2)" stroke-width="2" xlink:href="#path-1"></use>
                        </g>
                    </g>
                </g>
            </g>
        </g>
    </g>
</svg>