<?xml version="1.0" encoding="UTF-8" standalone="no"?>
<svg width="48px" height="48px" viewBox="0 0 48 48" version="1.1" xmlns="http://www.w3.org/2000/svg" xmlns:xlink="http://www.w3.org/1999/xlink">
    <!-- Generator: Sketch 3.8.2 (29753) - http://www.bohemiancoding.com/sketch -->
    <title>Icons/social/fb-icon(normal)</title>
    <desc>Created with Sketch.</desc>
    <defs>
        <rect id="path-1" x="0" y="0" width="48" height="48" rx="2"></rect>
        <mask id="mask-2" maskContentUnits="userSpaceOnUse" maskUnits="objectBoundingBox" x="0" y="0" width="48" height="48" fill="white">
            <use xlink:href="#path-1"></use>
        </mask>
    </defs>
    <g id="Регистрация/Авторизация" stroke="none" stroke-width="1" fill="none" fill-rule="evenodd">
        <g id="iPh-6_Регистрация-–-Гражданин-(шаг-1)" transform="translate(-132.000000, -600.000000)">
            <g id="Форма" transform="translate(31.000000, 152.000000)">
                <g id="Social-icons" transform="translate(37.000000, 448.000000)">
                    <g id="Icons/Social/fb-icon(normal)" transform="translate(64.000000, 0.000000)">
                        <g id="Icons/social/fb-icon(normal)">
                            <path d="M20.6121734,37.0557384 L20.6121734,23.9989808 L17.9169957,23.9989808 L17.9169957,19.4993743 L20.6121734,19.4993743 L20.6121734,16.7978268 C20.6121734,13.1270549 22.1340392,10.9442616 26.45784,10.9442616 L30.0575253,10.9442616 L30.0575253,15.4443778 L27.8074672,15.4443778 C26.1243188,15.4443778 26.0129752,16.0732016 26.0129752,17.2467683 L26.0068602,19.4988647 L30.0830043,19.4988647 L29.6060359,23.9984713 L26.0068602,23.9984713 L26.0068602,37.0557384 L20.6121734,37.0557384 Z" id="Shape" fill="#2E4E5E"></path>
                            <use id="Icons/social/fb-icon" stroke="#2E4E5E" mask="url(#mask-2)" stroke-width="2" xlink:href="#path-1"></use>
                        </g>
                    </g>
                </g>
            </g>
        </g>
    </g>
</svg>