<?xml version="1.0" encoding="UTF-8" standalone="no"?>
<svg width="48px" height="48px" viewBox="0 0 48 48" version="1.1" xmlns="http://www.w3.org/2000/svg" xmlns:xlink="http://www.w3.org/1999/xlink">
    <!-- Generator: Sketch 3.8.2 (29753) - http://www.bohemiancoding.com/sketch -->
    <title>Icons/Social/Ok-icon(normal)</title>
    <desc>Created with Sketch.</desc>
    <defs>
        <path d="M45.9986107,48 C47.1039475,48 48,47.1050616 48,45.9986107 L48,2.00138927 C48,0.896052496 47.1050616,0 45.9986107,0 L2.00138927,0 C0.896052496,0 0,0.894938439 0,2.00138927 L0,45.9986107 C0,47.1039475 0.894938439,48 2.00138927,48 L45.9986107,48 Z" id="path-1"></path>
        <mask id="mask-2" maskContentUnits="userSpaceOnUse" maskUnits="objectBoundingBox" x="0" y="0" width="48" height="48" fill="white">
            <use xlink:href="#path-1"></use>
        </mask>
    </defs>
    <g id="Регистрация/Авторизация" stroke="none" stroke-width="1" fill="none" fill-rule="evenodd">
        <g id="iPh-6_Регистрация-–-Гражданин-(шаг-1)" transform="translate(-260.000000, -600.000000)">
            <g id="Форма" transform="translate(31.000000, 152.000000)">
                <g id="Social-icons" transform="translate(37.000000, 448.000000)">
                    <g id="Icons/Social/Ok-icon(normal)" transform="translate(192.000000, 0.000000)">
                        <g>
                            <path d="M26.6573215,29.8091078 C27.9449472,29.515652 29.1867794,29.0063618 30.3302506,28.2877091 C31.1958584,27.7422006 31.4567669,26.5981238 30.9112584,25.7325539 C30.366469,24.8650539 29.2229978,24.6041075 28.3559141,25.149616 C25.7651082,26.7790643 22.4292333,26.7783453 19.8399034,25.149616 C18.9728575,24.6041075 17.8293485,24.8650539 17.285316,25.7325539 C16.7398075,26.5986915 16.9999969,27.7422006 17.8655669,28.2877091 C19.0090759,29.0054535 20.2508703,29.515652 21.5385338,29.8091078 L18.0023035,33.3451489 C17.279412,34.0687973 17.279412,35.2418638 18.0030604,35.9655122 C18.3652442,36.3269769 18.8390728,36.5080688 19.3128637,36.5080688 C19.7874114,36.5080688 20.2619591,36.3269769 20.6241807,35.9655122 L24.0975492,32.4906677 L27.5738697,35.9655122 C28.296799,36.6891985 29.4698656,36.6891985 30.193514,35.9655122 C30.9179193,35.2418638 30.9179193,34.0682296 30.193514,33.3451489 L26.6573215,29.8091078 Z M24.0982683,24.6492196 C27.5871914,24.6492196 30.423389,21.8129841 30.423389,18.326029 C30.423389,14.8374087 27.5871914,12 24.0982683,12 C20.6101399,12 17.7731854,14.8374087 17.7731854,18.326029 C17.7731854,21.8129841 20.6101399,24.6492196 24.0982683,24.6492196 Z M24.0982683,15.7069524 C25.542651,15.7069524 26.7171935,16.8816842 26.7171935,18.326029 C26.7171935,19.7688979 25.542651,20.9437432 24.0982683,20.9437432 C22.6553994,20.9437432 21.4793809,19.7688979 21.4793809,18.326029 C21.4793809,16.8816842 22.6553994,15.7069524 24.0982683,15.7069524 L24.0982683,15.7069524 Z" id="Combined-Shape" fill="#E63F3F"></path>
                            <use id="Icons/Social/Ok-icon" stroke="#E63F3F" mask="url(#mask-2)" stroke-width="2" xlink:href="#path-1"></use>
                        </g>
                    </g>
                </g>
            </g>
        </g>
    </g>
</svg>