<?xml version="1.0" encoding="UTF-8" standalone="no"?>
<svg width="48px" height="48px" viewBox="0 0 48 48" version="1.1" xmlns="http://www.w3.org/2000/svg" xmlns:xlink="http://www.w3.org/1999/xlink">
    <!-- Generator: Sketch 3.8.2 (29753) - http://www.bohemiancoding.com/sketch -->
    <title>Icons/social/tw-icon(normal)</title>
    <desc>Created with Sketch.</desc>
    <defs>
        <rect id="path-1" x="0" y="0" width="48" height="48" rx="2"></rect>
        <mask id="mask-2" maskContentUnits="userSpaceOnUse" maskUnits="objectBoundingBox" x="0" y="0" width="48" height="48" fill="white">
            <use xlink:href="#path-1"></use>
        </mask>
    </defs>
    <g id="Регистрация/Авторизация" stroke="none" stroke-width="1" fill="none" fill-rule="evenodd">
        <g id="iPh-6_Регистрация-–-Гражданин-(шаг-1)" transform="translate(-68.000000, -600.000000)">
            <g id="Форма" transform="translate(31.000000, 152.000000)">
                <g id="Social-icons" transform="translate(37.000000, 448.000000)">
                    <g id="Icons/Social/tw-icon(normal)">
                        <g id="Icons/social/tw-icon(normal)">
                            <path d="M27.3337633,14.626464 C25.2383534,15.389126 23.9140543,17.3550991 24.0649238,19.5075006 L24.1152137,20.3379548 L23.2770497,20.2362665 C20.2261328,19.8464615 17.5607714,18.5245141 15.2977286,16.3043204 L14.1913522,15.2026975 L13.9063764,16.0162036 C13.3028984,17.8296443 13.6884538,19.7447732 14.9456998,21.0328246 C15.616231,21.7446424 15.4653614,21.8463307 14.3086952,21.4226296 C13.9063764,21.2870452 13.5543476,21.185357 13.520821,21.2362011 C13.4034781,21.3548374 13.8057968,22.8971094 14.1242991,23.507239 C14.5601443,24.3546411 15.4485982,25.1850953 16.4208684,25.6765886 L17.2422691,26.0663936 L16.2699989,26.0833416 C15.3312552,26.0833416 15.2977286,26.1002897 15.3983083,26.4561986 C15.7335739,27.5578214 17.057873,28.7272364 18.5330416,29.2356778 L19.5723649,29.5915867 L18.6671478,30.1339241 C17.3260855,30.9135341 15.7503372,31.3541832 14.1745889,31.3880793 C13.4202413,31.4050274 12.8,31.4728195 12.8,31.5236637 C12.8,31.6931441 14.8451201,32.6422346 16.0353129,33.0150915 C19.6058915,34.1167144 23.8470012,33.6421691 27.0320243,31.7609363 C29.295067,30.4220408 31.5581098,27.7611979 32.6141964,25.1850953 C33.1841479,23.8123037 33.7540994,21.3039933 33.7540994,20.1006822 C33.7540994,19.3210721 33.8043892,19.2193839 34.7431329,18.2872415 C35.2963211,17.7449041 35.8159828,17.1517225 35.9165624,16.9822421 C36.0841952,16.6602293 36.067432,16.6602293 35.2125047,16.948346 C33.7876259,17.4567873 33.5864666,17.3889952 34.2905243,16.6263332 C34.810186,16.0839958 35.4304273,15.1010092 35.4304273,14.8128925 C35.4304273,14.7620484 35.1789781,14.8467886 34.8940024,14.999321 C34.5922634,15.1688014 33.9217322,15.4230221 33.4188338,15.5755545 L32.5136167,15.8636712 L31.692216,15.3043858 C31.2396075,14.999321 30.6026028,14.6603601 30.2673373,14.5586718 C29.41241,14.3213992 28.1048742,14.3552953 27.3337633,14.626464 L27.3337633,14.626464 Z" id="Shape" fill="#4099FF"></path>
                            <use id="Icons/social/tw-icon" stroke="#4099FF" mask="url(#mask-2)" stroke-width="2" xlink:href="#path-1"></use>
                        </g>
                    </g>
                </g>
            </g>
        </g>
    </g>
</svg>